HIERARCHY
ROOT root
{
	OFFSET	0	13.1	24.9
	CHANNELS 6  Xposition Yposition Zposition Xrotation Yrotation Zrotation
	JOINT spine_1
	{
		OFFSET	0	9.99999	0
		CHANNELS 3  Xrotation Yrotation Zrotation
		JOINT spine_2
		{
			OFFSET	0	112	-10
			CHANNELS 3  Xrotation Yrotation Zrotation
			JOINT spine_3
			{
				OFFSET	0	206.5	19.3
				CHANNELS 3  Xrotation Yrotation Zrotation
				JOINT spine_4
				{
					OFFSET	0	110.4	14.6
					CHANNELS 3  Xrotation Yrotation Zrotation
					JOINT neck_1
					{
						OFFSET	0	71.8	-50.3
						CHANNELS 3  Xrotation Yrotation Zrotation
						JOINT neck_2
						{
							OFFSET	0	86.2	-25.8
							CHANNELS 3  Xrotation Yrotation Zrotation
							JOINT head_ee
							{
								OFFSET	0	179.8	-8.7
								CHANNELS 3  Xrotation Yrotation Zrotation
								End Site
								{
									OFFSET	1	0	0
								}
							}
						}
					}
					JOINT left_clavicle
					{
						OFFSET	-43.2	22.4	-70.8
						CHANNELS 3  Xrotation Yrotation Zrotation
						JOINT left_shoulder
						{
							OFFSET	-93.9	-5.79999	48.7
							CHANNELS 3  Xrotation Yrotation Zrotation
							JOINT left_elbow
							{
								OFFSET	-291.4	-30.8	15.2
								CHANNELS 3  Xrotation Yrotation Zrotation
								JOINT left_lowarm_twist
								{
									OFFSET	-110.7	-3.89999	13.6
									CHANNELS 3  Xrotation Yrotation Zrotation
									JOINT left_hand
									{
										OFFSET	-110.7	-3.89999	13.6
										CHANNELS 3  Xrotation Yrotation Zrotation
										JOINT left_ee
										{
											OFFSET	-80.8	-5.10001	12.1
											CHANNELS 3  Xrotation Yrotation Zrotation
											End Site
											{
												OFFSET	1	0	0
											}
										}
									}
								}
							}
						}
					}
					JOINT right_clavicle
					{
						OFFSET	43.2	22.4	-70.8
						CHANNELS 3  Xrotation Yrotation Zrotation
						JOINT right_shoulder
						{
							OFFSET	93.9	-5.79999	48.7
							CHANNELS 3  Xrotation Yrotation Zrotation
							JOINT right_elbow
							{
								OFFSET	291.4	-30.8	15.2
								CHANNELS 3  Xrotation Yrotation Zrotation
								JOINT right_lowarm_twist
								{
									OFFSET	110.7	-3.89999	13.6
									CHANNELS 3  Xrotation Yrotation Zrotation
									JOINT right_hand
									{
										OFFSET	110.7	-3.89999	13.6
										CHANNELS 3  Xrotation Yrotation Zrotation
										JOINT right_ee
										{
											OFFSET	80.8	-5.10001	12.1
											CHANNELS 3  Xrotation Yrotation Zrotation
											End Site
											{
												OFFSET	1	0	0
											}
										}
									}
								}
							}
						}
					}
				}
			}
		}
	}
	JOINT left_hip
	{
		OFFSET	-82.8	-127.5	0.300001
		CHANNELS 3  Xrotation Yrotation Zrotation
		JOINT left_knee
		{
			OFFSET	-28.2	-396.7	2.2
			CHANNELS 3  Xrotation Yrotation Zrotation
			JOINT left_ankle
			{
				OFFSET	-11.7	-411.3	35.4
				CHANNELS 3  Xrotation Yrotation Zrotation
				JOINT left_toes
				{
					OFFSET	0	-60	-88.6
					CHANNELS 3  Xrotation Yrotation Zrotation
					JOINT left_foot_ee
					{
						OFFSET	-22.5	-16.5	-42.2
						CHANNELS 3  Xrotation Yrotation Zrotation
						End Site
						{
							OFFSET	1	0	0
						}
					}
				}
			}
		}
	}
	JOINT right_hip
	{
		OFFSET	82.8	-127.5	0.300001
		CHANNELS 3  Xrotation Yrotation Zrotation
		JOINT right_knee
		{
			OFFSET	28.2	-396.7	2.2
			CHANNELS 3  Xrotation Yrotation Zrotation
			JOINT right_ankle
			{
				OFFSET	11.7	-411.3	35.4
				CHANNELS 3  Xrotation Yrotation Zrotation
				JOINT right_toes
				{
					OFFSET	0	-60	-88.6
					CHANNELS 3  Xrotation Yrotation Zrotation
					JOINT right_foot_ee
					{
						OFFSET	22.5	-16.5	-42.2
						CHANNELS 3  Xrotation Yrotation Zrotation
						End Site
						{
							OFFSET	1	0	0
						}
					}
				}
			}
		}
	}
}
MOTION
Frames: 15
Frame Time: 0.02
325.696 731.623 -457.13 166.223 -61.5608 164.849 -5.08102 1.15946 3.62554 -5.07419 0.926567 3.69185 -4.99851 -0.201603 3.80085 -5.01844 0.400761 3.78506 -8.07985 -15.5316 1.69606 -8.18017 -30.2199 -1.8207 -0.0 0.0 -0.0 -8.13386 25.8135 -7.74002 24.0009 -31.0544 80.1047 0.859527 -23.0633 0.175371 47.2653 -0.780063 -5.8185 4.90409 -27.9584 19.7586 -0.0 0.0 -0.0 6.45922 29.2914 -10.6883 -1.23503 31.665 -66.1506 1.38292 34.4116 -0.428258 42.9551 0.511826 5.33668 6.52377 25.1734 -33.032 0.0 0.0 0.0 -1.60234 65.9755 -7.93536 -2.52803 0.0958025 0.37611 5.90522 -23.9329 -1.00353 -16.8554 0.0 0.0 -0.0 0.0 -0.0 1.41901 16.3239 -1.32843 -18.2695 -0.31222 -2.77437 41.6456 -10.0119 5.01815 -37.4826 0.0 0.0 0.0 0.0 0.0 
332.598 728.157 -456.155 167.858 -60.1288 166.468 -4.85637 1.37306 3.57968 -4.84997 1.14265 3.65965 -4.76121 0.0307718 3.83353 -4.78115 0.635382 3.78071 -7.41365 -15.519 1.81436 -7.4382 -30.2097 -1.50807 -0.0 0.0 -0.0 -7.7498 26.0659 -7.12953 24.6908 -26.676 79.1261 1.10138 -28.6157 0.280908 46.18 -0.70911 -5.69908 4.55025 -26.6981 18.1729 -0.0 0.0 -0.0 5.77437 29.5973 -9.16142 -0.803891 30.6882 -67.535 1.46047 35.8825 -0.472903 43.9926 0.573055 5.45445 6.51475 25.1916 -32.9511 0.0 0.0 0.0 -1.08478 65.9006 -8.75269 -4.00532 0.144065 0.597687 8.12695 -22.0853 -1.34326 -13.7713 0.0 0.0 -0.0 0.0 -0.0 1.92665 14.4 -0.992666 -18.7549 -0.308377 -2.84874 41.397 -10.808 5.00391 -39.0086 0.0 0.0 0.0 0.0 0.0 
341.591 724.829 -455.097 166.475 -60.7559 164.889 -4.91271 1.24672 3.3893 -4.9069 1.02865 3.46165 -4.83063 -0.025396 3.61099 -4.84841 0.544841 3.56979 -7.27745 -15.1842 2.46083 -7.27306 -30.0266 -0.748677 -0.0 0.0 -0.0 -7.29766 25.6167 -6.67424 24.0846 -24.1874 78.5109 1.32543 -33.2864 0.396231 45.5253 -0.667406 -5.6264 4.12951 -24.0137 16.9131 -0.0 0.0 -0.0 4.90781 29.3415 -7.30593 0.335561 30.0052 -69.2285 1.53646 37.2728 -0.518191 44.754 0.619352 5.54019 6.56944 25.4118 -33.1937 0.0 0.0 0.0 -0.587831 65.6577 -9.52059 -6.34756 0.208821 0.951286 9.67644 -20.7925 -1.5695 -11.345 0.0 0.0 -0.0 0.0 -0.0 1.5986 13.1922 -0.368027 -21.9459 -0.267446 -3.3366 41.3965 -11.4023 5.00957 -39.87 0.0 0.0 0.0 0.0 0.0 
347.501 726.162 -452.634 165.297 -60.6529 163.551 -4.98616 1.10114 3.51632 -4.97971 0.875305 3.57915 -4.91027 -0.211805 3.6784 -4.92896 0.371388 3.66575 -7.06227 -14.8906 3.28114 -7.01308 -30.0405 0.200465 -0.0 0.0 -0.0 -7.30974 25.2324 -6.82016 23.2713 -20.8684 77.5226 1.60503 -38.4849 0.560297 43.7044 -0.555834 -5.42185 3.68958 -19.7824 16.222 -0.0 0.0 -0.0 4.62204 29.3476 -6.68467 1.86773 30.157 -70.6953 1.56655 37.8096 -0.536525 46.0945 0.703612 5.68961 6.44046 25.4448 -32.2106 0.0 0.0 0.0 0.291054 65.6845 -10.9511 -8.9493 0.263735 1.34673 10.7996 -18.0061 -1.70052 -9.30603 0.0 0.0 -0.0 0.0 -0.0 0.990731 10.5684 0.809843 -21.5563 -0.273898 -3.27717 41.3656 -10.0762 4.99498 -40.111 0.0 0.0 0.0 0.0 0.0 
356.533 725.911 -447.84 163.943 -61.3132 161.973 -5.02557 0.993409 3.52694 -5.01898 0.767116 3.58291 -4.95645 -0.319514 3.65007 -4.97494 0.260559 3.65474 -8.54026 -14.6452 4.51197 -8.62417 -30.5378 1.05018 -0.0 0.0 -0.0 -7.1239 25.352 -6.52691 21.6847 -18.1741 76.7831 1.891 -43.125 0.747325 42.5673 -0.48949 -5.29238 3.12754 -13.5354 15.4525 -0.0 0.0 -0.0 4.10464 29.0966 -5.58912 1.70593 30.6935 -71.1286 1.84271 42.3864 -0.714541 46.3165 0.717904 5.71416 6.67545 25.9563 -33.5701 0.0 0.0 0.0 0.985521 65.5711 -12.0421 -10.3015 0.285168 1.55311 11.6546 -14.4549 -1.77889 -7.84393 0.0 0.0 -0.0 0.0 -0.0 0.439402 9.38568 1.4025 -24.4988 -0.215177 -3.72483 41.276 -6.37136 4.96828 -39.4305 0.0 0.0 0.0 0.0 0.0 
364.077 727.441 -441.14 162.451 -62.2244 160.005 -4.9422 0.935777 3.54047 -4.93551 0.708741 3.59275 -4.87678 -0.373252 3.64285 -4.89524 0.206356 3.65609 -8.52032 -13.7391 5.37501 -8.55682 -29.435 2.13881 -0.0 0.0 -0.0 -6.94316 24.6779 -6.49991 21.6816 -16.1365 76.3728 2.08541 -45.9258 0.883689 41.1717 -0.411603 -5.13174 2.93405 -11.3185 15.141 -0.0 0.0 -0.0 4.09069 28.9954 -5.56985 2.29396 29.7339 -72.5247 1.95749 44.1134 -0.793196 47.2965 0.782139 5.82191 6.57362 26.1874 -32.6373 0.0 0.0 0.0 2.0367 65.415 -13.6147 -11.9664 0.304857 1.8078 12.0348 -13.3522 -1.82008 -7.01355 0.0 0.0 -0.0 0.0 -0.0 0.00193829 7.32131 1.85757 -26.9018 -0.15021 -4.08787 41.2607 -7.56507 4.97087 -39.4849 0.0 0.0 0.0 0.0 0.0 
371.786 723.23 -438.201 161.284 -62.9007 158.488 -4.86683 0.905094 3.5649 -4.86002 0.676569 3.61518 -4.80313 -0.405947 3.65542 -4.82173 0.17605 3.67365 -8.98777 -13.7846 6.163 -9.05187 -30.0693 2.77368 -0.0 0.0 -0.0 -6.79921 24.637 -6.31455 21.1945 -15.0734 75.941 2.17362 -47.1104 0.947702 40.9952 -0.402036 -5.11129 2.78979 -9.68119 14.879 -0.0 0.0 -0.0 4.13782 29.0031 -5.67128 1.62767 30.1124 -72.7651 2.04617 45.3821 -0.855632 47.6074 0.802898 5.85586 6.60274 26.3273 -32.7458 0.0 0.0 0.0 2.55343 65.3234 -14.41 -13.9038 0.318441 2.10474 12.5441 -11.8353 -1.87463 -6.28749 0.0 0.0 -0.0 0.0 -0.0 -0.746909 7.211 2.23253 -28.3122 -0.105004 -4.29959 41.284 -6.13799 4.96844 -39.3576 0.0 0.0 0.0 0.0 0.0 
374.529 723.921 -436.815 159.902 -63.7544 156.945 -4.82464 0.89464 3.52626 -4.81797 0.66859 3.57595 -4.76244 -0.399581 3.61586 -4.78064 0.176101 3.63358 -9.00711 -12.5134 6.61346 -9.02368 -27.997 3.53892 -0.0 0.0 -0.0 -5.85925 24.2404 -5.13932 20.4061 -14.4293 74.3761 2.45593 -50.5731 1.16035 39.127 -0.304635 -4.89312 2.36881 -3.74328 14.5125 -0.0 0.0 -0.0 4.74327 28.644 -7.02484 1.09453 29.56 -72.0721 2.02182 45.0392 -0.838346 47.8942 0.822212 5.88708 6.88942 26.9184 -34.4141 0.0 0.0 0.0 2.74797 64.2629 -14.9477 -14.5727 0.320798 2.20734 15.5967 -10.9545 -2.2878 -4.74202 0.0 0.0 -0.0 0.0 -0.0 -0.33712 7.70653 2.24738 -31.8437 0.0309563 -4.82442 41.7374 -5.39245 5.00514 -37.9894 0.0 0.0 0.0 0.0 0.0 
380.773 723.076 -435.673 158.811 -63.8418 155.812 -4.8498 0.902611 3.52722 -4.84313 0.676483 3.57742 -4.787 -0.393995 3.61939 -4.80523 0.182174 3.63619 -10.0298 -11.82 7.2604 -10.1005 -27.1184 4.08281 -0.0 0.0 -0.0 -5.50151 24.4202 -4.59736 19.444 -13.5018 73.4652 2.65774 -52.7723 1.31869 38.1915 -0.258553 -4.78271 2.08165 -0.187316 13.9744 -0.0 0.0 -0.0 4.98237 28.7854 -7.52901 0.275481 29.2871 -71.318 2.09961 46.12 -0.893909 48.0701 0.834139 5.90618 7.02947 26.9281 -35.4578 0.0 0.0 0.0 2.10542 63.9261 -14.3006 -15.2742 0.321983 2.31495 17.33 -9.8524 -2.50615 -4.06634 0.0 0.0 -0.0 0.0 -0.0 -0.387723 9.41986 2.12746 -33.999 0.129763 -5.14035 41.4595 -5.10304 4.98184 -37.062 0.0 0.0 0.0 0.0 0.0 
395.152 724.259 -438.531 156.437 -64.4748 152.638 -5.11491 0.941072 3.60073 -5.10798 0.710199 3.65322 -5.0476 -0.400618 3.69993 -5.06665 0.188327 3.71676 -11.4973 -11.3198 6.97691 -11.685 -25.9422 3.5658 -0.0 0.0 -0.0 -5.31505 24.6469 -4.28108 18.3153 -13.6458 74.3619 3.0109 -56.1482 1.60619 36.5306 -0.181212 -4.58494 1.2307 6.69258 10.8821 -0.0 0.0 -0.0 5.64638 28.8641 -8.96466 -0.384206 28.7234 -69.5646 2.05427 45.4951 -0.861398 48.1418 0.83902 5.91396 7.05515 26.3202 -36.148 0.0 0.0 0.0 0.886985 52.8343 -12.2916 -23.1801 0.244337 3.52458 16.5641 -6.90302 -2.36938 0.299834 -0.0 -0.0 -0.0 0.0 -0.0 -1.82213 16.4474 1.8857 -35.9387 0.228807 -5.42137 40.2147 -5.08278 4.87635 -37.5106 0.0 0.0 0.0 0.0 0.0 
398.589 721.182 -431.883 154.772 -64.5437 151.176 -5.23745 1.04009 3.50406 -5.23099 0.815152 3.56304 -5.16533 -0.280963 3.64418 -5.18373 0.297701 3.64285 -11.3818 -11.0906 7.9359 -11.5184 -26.1353 4.59923 -0.0 0.0 -0.0 -4.98695 24.9117 -3.76682 17.8949 -13.0767 73.4421 3.00385 -56.0861 1.60034 36.3349 -0.172481 -4.5615 1.83811 4.51213 14.1377 -0.0 0.0 -0.0 4.92179 29.1964 -7.35229 0.265477 28.9603 -69.912 2.25177 48.1175 -1.00542 49.0587 0.902249 6.01285 7.15661 26.7259 -36.5898 0.0 0.0 0.0 1.69497 61.8152 -14.2536 -17.2876 0.318066 2.62384 19.7853 -9.03169 -2.81505 -2.25443 0.0 0.0 -0.0 0.0 -0.0 -1.68387 11.4289 2.06371 -37.6583 0.324549 -5.66765 40.0962 -4.01269 4.86677 -35.9877 0.0 0.0 0.0 0.0 0.0 
404.62 720.725 -433.948 152.854 -65.9054 149.234 -5.31901 0.961439 3.30894 -5.31323 0.749057 3.36333 -5.25582 -0.290182 3.43341 -5.27218 0.255374 3.43617 -12.9531 -11.0454 7.37226 -13.235 -25.6037 3.6715 -0.0 0.0 -0.0 -5.12023 25.1661 -3.87895 17.2975 -14.2739 74.5695 3.10003 -56.9164 1.68054 35.3333 -0.129043 -4.44105 1.76372 6.29139 14.3032 -0.0 0.0 -0.0 4.61359 29.7318 -6.62397 0.0961619 29.5223 -68.7003 2.17636 47.1464 -0.949709 49.5277 0.935209 6.06306 7.08828 26.1309 -36.5564 0.0 0.0 0.0 5.82688 62.5583 -16.1378 -19.8615 0.297261 3.01817 20.3722 -8.62706 -2.88416 -1.19803 0.0 0.0 -0.0 0.0 -0.0 -2.29607 10.8164 2.00579 -38.1808 0.355106 -5.74192 39.6594 -4.13096 4.82877 -35.7166 0.0 0.0 0.0 0.0 0.0 
413.683 715.436 -432.67 150.52 -65.2788 146.998 -5.46965 1.08009 3.21422 -5.46433 0.873488 3.27634 -5.40098 -0.153794 3.38717 -5.41679 0.382767 3.36901 -14.0525 -10.9498 6.77084 -14.4254 -24.9893 2.86122 -0.0 0.0 -0.0 -5.0722 24.3965 -4.01729 16.0513 -14.3079 74.4115 3.16169 -57.4299 1.73236 34.5694 -0.097334 -4.34868 1.59505 9.29101 14.2731 -0.0 0.0 -0.0 4.33296 30.1201 -5.97217 0.290935 28.9515 -68.0758 2.26439 48.2765 -1.01483 49.8335 0.956916 6.09564 7.04125 25.3965 -36.7916 0.0 0.0 0.0 6.86088 60.5299 -14.6013 -22.382 0.259743 3.40308 21.0554 -5.5779 -2.93105 -0.39137 0.0 0.0 -0.0 0.0 -0.0 -4.21071 12.763 2.63711 -39.2941 0.422473 -5.89923 39.8594 -3.41182 4.84742 -35.4505 0.0 0.0 0.0 0.0 0.0 
419.831 714.761 -432.952 149.281 -65.0431 145.709 -5.64497 1.1362 3.15552 -5.63991 0.933208 3.22133 -5.57401 -0.0903006 3.35243 -5.58942 0.439989 3.32469 -13.7681 -10.6216 7.66206 -14.0759 -24.9253 3.89567 -0.0 0.0 -0.0 -4.84056 24.1883 -3.75481 15.0479 -14.0222 74.6828 3.01707 -56.2024 1.61131 34.5083 -0.0948506 -4.34128 1.60869 8.81271 14.1904 -0.0 0.0 -0.0 4.11893 30.4092 -5.4761 0.256937 28.9871 -67.5326 2.25266 48.1288 -1.00609 50.0667 0.973589 6.12041 7.07783 25.5354 -36.9622 0.0 0.0 0.0 8.99281 62.0597 -15.4832 -22.6574 0.254618 3.44502 21.3597 -8.45957 -3.00617 0.0452917 -0.0 -0.0 -0.0 0.0 -0.0 -5.33201 13.046 2.78597 -38.5813 0.378986 -5.79865 38.5975 -3.47037 4.7363 -35.2552 0.0 0.0 0.0 0.0 0.0 
422.458 714.443 -434.244 148.686 -65.6465 145.036 -5.72993 1.17136 3.08054 -5.72518 0.97306 3.14874 -5.65858 -0.0350546 3.29534 -5.67341 0.485541 3.2596 -14.3083 -10.6749 7.22697 -14.67 -24.7254 3.33349 -0.0 0.0 -0.0 -5.19725 24.5881 -4.1368 13.7185 -14.56 75.168 3.04164 -56.4167 1.63176 33.5896 -0.0584722 -4.22962 1.53698 10.5598 14.344 -0.0 0.0 -0.0 4.08133 30.6899 -5.36342 3.09835 29.686 -66.3959 1.9672 44.255 -0.799962 50.1789 0.981644 6.1323 6.97382 24.8277 -36.7262 0.0 0.0 0.0 10.1266 62.1459 -15.7554 -23.6894 0.233622 3.60199 20.4125 -4.60462 -2.8404 -0.0509052 0.0 0.0 -0.0 0.0 -0.0 -5.63776 12.7657 2.6533 -38.2349 0.358308 -5.74959 39.3715 -3.95916 4.80384 -35.1806 0.0 0.0 0.0 0.0 0.0 
